<?xml version="1.0" standalone="no"?>
<!DOCTYPE svg PUBLIC "-//W3C//DTD SVG 20010904//EN"
 "http://www.w3.org/TR/2001/REC-SVG-20010904/DTD/svg10.dtd">
<svg version="1.0" xmlns="http://www.w3.org/2000/svg"
 width="260.000000pt" height="260.000000pt" viewBox="0 0 260.000000 260.000000"
 preserveAspectRatio="xMidYMid meet">
<metadata>
Created by potrace 1.14, written by Peter Selinger 2001-2017
</metadata>
<g transform="translate(0.000000,260.000000) scale(0.100000,-0.100000)"
fill="#000000" stroke="none">
<path d="M1889 1791 c-1 -4 -2 -189 -3 -413 l-1 -408 102 0 103 0 0 130 c0
119 2 130 18 130 12 0 50 -44 110 -130 l92 -130 125 0 c69 0 125 2 125 6 0 5
-119 163 -131 174 -3 3 -22 27 -42 54 l-38 50 33 13 c75 31 128 150 122 273
-7 121 -69 204 -179 240 -40 13 -434 23 -436 11z m384 -219 c31 -29 38 -61 22
-99 -20 -47 -40 -57 -126 -60 l-79 -3 0 96 0 96 79 -3 c66 -3 84 -8 104 -27z"/>
<path d="M50 1380 l0 -400 410 0 410 0 0 400 0 400 -410 0 -410 0 0 -400z"/>
<path d="M1291 1768 c-13 -4 -27 -6 -32 -2 -5 3 -9 0 -9 -6 0 -6 -4 -8 -10 -5
-5 3 -10 3 -10 -2 0 -4 -23 -21 -50 -38 -28 -16 -53 -37 -56 -47 -3 -10 -10
-18 -15 -18 -10 0 -34 -49 -31 -62 1 -5 -3 -8 -9 -8 -5 0 -7 -4 -4 -10 3 -5 1
-10 -6 -10 -7 0 -9 -3 -6 -7 4 -3 1 -13 -6 -21 -9 -13 -9 -14 1 -8 6 4 12 2
12 -3 0 -6 -4 -11 -9 -11 -11 0 -9 -60 3 -79 6 -10 5 -12 -2 -7 -7 4 -12 2
-12 -3 0 -6 5 -11 11 -11 5 0 8 -4 4 -9 -3 -5 -1 -12 5 -16 5 -3 10 -17 10
-31 0 -13 4 -24 8 -24 5 0 15 -12 23 -27 18 -34 65 -80 90 -88 11 -4 19 -11
19 -16 0 -5 8 -9 17 -9 9 0 25 -8 36 -17 15 -13 18 -14 12 -3 -7 12 -6 13 7 3
8 -7 18 -10 21 -6 4 3 7 1 7 -5 0 -8 22 -12 66 -12 38 0 63 4 59 9 -3 6 4 8
15 6 11 -2 20 0 20 6 0 5 3 8 8 7 29 -8 193 118 175 135 -3 4 -2 7 4 7 10 0
28 46 25 63 -1 4 3 7 9 7 6 0 9 28 8 75 -1 47 -6 75 -13 75 -6 0 -5 4 3 9 9 6
10 11 2 15 -6 4 -8 12 -5 18 4 6 2 8 -3 5 -6 -4 -15 5 -21 21 -5 15 -19 37
-30 48 -12 12 -18 25 -15 28 4 3 1 6 -6 6 -7 0 -18 6 -26 13 -25 24 -55 47
-55 42 0 -2 -20 4 -46 15 -27 12 -42 15 -38 7 6 -9 3 -8 -8 1 -18 14 -109 14
-147 0z"/>
<path d="M1040 1125 l0 -125 330 0 330 0 0 125 c0 104 -2 125 -15 125 -8 0
-15 -6 -15 -13 0 -7 -9 -18 -20 -25 -11 -7 -20 -20 -20 -29 0 -9 -3 -14 -6
-11 -3 4 -21 -9 -41 -28 -19 -19 -41 -34 -49 -34 -8 0 -14 -4 -14 -9 0 -6 -9
-8 -20 -6 -14 3 -20 -2 -20 -13 0 -15 -2 -15 -10 -2 -9 13 -10 13 -10 0 0 -12
-2 -12 -9 -2 -7 11 -9 11 -13 0 -4 -9 -19 -12 -44 -10 -22 2 -54 3 -72 2 -23
0 -31 3 -26 11 5 8 2 9 -11 2 -18 -11 -75 10 -75 27 0 5 -9 7 -20 5 -11 -2
-19 -1 -17 3 3 4 -5 16 -16 27 -11 11 -17 14 -13 8 5 -9 2 -11 -8 -7 -9 3 -14
10 -11 14 3 4 -2 11 -11 14 -8 3 -13 10 -9 15 3 5 -4 12 -15 16 -11 3 -20 15
-20 26 0 10 -7 19 -15 19 -13 0 -15 -21 -15 -125z"/>
<path d="M40 920 c0 -20 7 -20 1255 -20 1248 0 1255 0 1255 20 0 20 -7 20
-1255 20 -1248 0 -1255 0 -1255 -20z"/>
<path d="M40 830 l0 -50 1255 0 1255 0 0 50 0 50 -1255 0 -1255 0 0 -50z"/>
</g>
</svg>
