<?xml version="1.0" encoding="UTF-8" standalone="no"?>
<svg
   xmlns:dc="http://purl.org/dc/elements/1.1/"
   xmlns:cc="http://creativecommons.org/ns#"
   xmlns:rdf="http://www.w3.org/1999/02/22-rdf-syntax-ns#"
   xmlns:svg="http://www.w3.org/2000/svg"
   xmlns="http://www.w3.org/2000/svg"
   viewBox="0 0 1122.52 793.70667"
   height="793.70667"
   width="1122.52"
   xml:space="preserve"
   id="svg2"
   version="1.1"><metadata
     id="metadata8"><rdf:RDF><cc:Work
         rdf:about=""><dc:format>image/svg+xml</dc:format><dc:type
           rdf:resource="http://purl.org/dc/dcmitype/StillImage" /></cc:Work></rdf:RDF></metadata><defs
     id="defs6"><linearGradient
       id="linearGradient32"
       spreadMethod="pad"
       gradientTransform="matrix(-12.215047,-72.17234,-72.17234,12.215047,147.59375,328.05762)"
       gradientUnits="userSpaceOnUse"
       y2="0"
       x2="1"
       y1="0"
       x1="0"><stop
         id="stop24"
         offset="0"
         style="stop-opacity:1;stop-color:#ffffff" /><stop
         id="stop26"
         offset="0.189815"
         style="stop-opacity:1;stop-color:#ffffff" /><stop
         id="stop28"
         offset="0.921296"
         style="stop-opacity:1;stop-color:#383332" /><stop
         id="stop30"
         offset="1"
         style="stop-opacity:1;stop-color:#383332" /></linearGradient><clipPath
       id="clipPath42"
       clipPathUnits="userSpaceOnUse"><path
         id="path40"
         d="M 0,595.28 H 841.89 V 0 H 0 Z" /></clipPath></defs><g
     transform="matrix(1.3333333,0,0,-1.3333333,0,793.70667)"
     id="g10"><g
       id="g12"><g
         id="g14"><g
           id="g20"><g
             id="g22"><path
               id="path34"
               style="fill:url(#linearGradient32);stroke:none"
               d="m 105.399,298.078 c -3.373,-19.928 10.049,-38.82 29.979,-42.194 v 0 c 19.931,-3.372 38.821,10.05 42.194,29.98 v 0 c 3.373,19.931 -10.049,38.822 -29.98,42.193 v 0 c -2.068,0.35 -4.123,0.52 -6.153,0.52 v 0 c -17.528,-10e-4 -33.017,-12.635 -36.04,-30.499" /></g></g></g></g><g
       id="g36"><g
         clip-path="url(#clipPath42)"
         id="g38"><path
           id="path44"
           style="fill:#e23e3a;fill-opacity:1;fill-rule:nonzero;stroke:none"
           d="M 98.72,242.861 H 22.553 v 86.348 H 98.72 Z" /><g
           transform="translate(228.7871,316.7881)"
           id="g46"><path
             id="path48"
             style="fill:#b6b8bc;fill-opacity:1;fill-rule:nonzero;stroke:none"
             d="m 0,0 v -22.746 h 12.811 c 4.184,0 7.223,0.294 9.119,0.883 1.895,0.588 3.583,1.894 5.065,3.922 1.481,2.025 2.223,4.345 2.223,6.961 0,2.483 -0.742,4.706 -2.223,6.667 -1.482,1.96 -3.094,3.169 -4.837,3.627 C 20.415,-0.229 17.146,0 12.354,0 Z m 0,-37.977 v -35.362 h -21.047 v 89.223 h 39.218 c 7.233,0 13.04,-0.839 17.42,-2.515 4.379,-1.678 8.007,-4.758 10.883,-9.244 2.876,-4.484 4.314,-9.471 4.314,-14.957 0,-10.713 -5.164,-18.4 -15.492,-23.059 L 51.769,-73.339 H 28.674 l -13.702,35.362 z" /></g><path
           id="path50"
           style="fill:#b6b8bc;fill-opacity:1;fill-rule:nonzero;stroke:none"
           d="m 397.885,243.449 h -20.198 v 20.198 h 20.198 z" /><g
           transform="translate(453.4951,243.4492)"
           id="g52"><path
             id="path54"
             style="fill:#b6b8bc;fill-opacity:1;fill-rule:nonzero;stroke:none"
             d="M 0,0 -22.014,72.751 V 0 H -39.531 V 89.223 H -6.984 L 8.676,35.82 25.148,89.223 H 57.797 V 0 H 36.75 V 72.751 L 14.307,0 Z" /></g><path
           id="path56"
           style="fill:#b6b8bc;fill-opacity:1;fill-rule:nonzero;stroke:none"
           d="m 549.923,243.449 h -20.852 v 89.223 h 20.852 z" /><path
           id="path58"
           style="fill:#b6b8bc;fill-opacity:1;fill-rule:nonzero;stroke:none"
           d="m 586.199,243.449 h -20.197 v 20.198 h 20.197 z" /><g
           transform="translate(663.918,313.0635)"
           id="g60"><path
             id="path62"
             style="fill:#b6b8bc;fill-opacity:1;fill-rule:nonzero;stroke:none"
             d="m 0,0 -17.779,-5.949 c -2.392,7.059 -7.457,10.59 -15.195,10.59 -8.26,0 -12.389,-2.68 -12.389,-8.041 0,-2.135 0.772,-3.944 2.317,-5.424 1.544,-1.483 5.036,-2.77 10.476,-3.862 9.093,-1.835 15.752,-3.689 19.974,-5.562 4.221,-1.873 7.779,-4.891 10.672,-9.051 2.895,-4.162 4.342,-8.811 4.342,-13.953 0,-8.061 -3.103,-15.03 -9.306,-20.913 -6.205,-5.881 -15.401,-8.822 -27.591,-8.822 -9.144,0 -16.926,2.082 -23.348,6.244 -6.422,4.16 -10.655,10.336 -12.701,18.53 l 19.347,4.379 c 2.175,-8.324 8.22,-12.484 18.135,-12.484 4.784,0 8.35,0.925 10.698,2.777 2.348,1.852 3.523,4.063 3.523,6.635 0,2.615 -1.067,4.64 -3.199,6.079 -2.132,1.438 -6.245,2.789 -12.335,4.055 -11.359,2.354 -19.453,5.57 -24.284,9.643 -4.83,4.074 -7.245,10.033 -7.245,17.876 0,7.929 2.884,14.618 8.652,20.065 5.768,5.446 13.593,8.169 23.476,8.169 C -16.261,20.981 -5.007,13.987 0,0" /></g><path
           id="path64"
           style="fill:#b6b8bc;fill-opacity:1;fill-rule:nonzero;stroke:none"
           d="m 698.364,243.449 h -20.197 v 20.198 h 20.197 z" /><g
           transform="translate(734.4209,278.2891)"
           id="g66"><path
             id="path68"
             style="fill:#b6b8bc;fill-opacity:1;fill-rule:nonzero;stroke:none"
             d="M 0,0 H 18.905 L 9.535,31.31 Z M 23.864,54.383 51.793,-34.84 H 29.33 l -5.496,18.368 H -5.014 l -5.592,-18.368 h -18.326 l 28.598,89.223 z" /></g><path
           id="path70"
           style="fill:#b6b8bc;fill-opacity:1;fill-rule:nonzero;stroke:none"
           d="m 817.263,243.449 h -20.197 v 20.198 h 20.197 z" /><g
           transform="translate(174.8877,265.4854)"
           id="g72"><path
             id="path74"
             style="fill:#8a898e;fill-opacity:1;fill-rule:nonzero;stroke:none"
             d="M 0,0 C -35.067,-41.854 -69.757,-0.377 -69.757,-0.377 L -70.983,-22.153 1.508,-22.53 V 1.697" /></g><path
           id="path76"
           style="fill:#383332;fill-opacity:1;fill-rule:nonzero;stroke:none"
           d="M 823.438,220.049 H 23.119 v 9.051 h 800.319 z" /><path
           id="path78"
           style="fill:#383332;fill-opacity:1;fill-rule:nonzero;stroke:none"
           d="M 822.873,233.588 H 22.553 v 3.465 h 800.32 z" /><g
           transform="translate(222.3799,316.7881)"
           id="g80"><path
             id="path82"
             style="fill:#383332;fill-opacity:1;fill-rule:nonzero;stroke:none"
             d="m 0,0 v -22.746 h 12.811 c 4.184,0 7.223,0.294 9.119,0.883 1.895,0.588 3.583,1.894 5.065,3.922 1.481,2.025 2.223,4.345 2.223,6.961 0,2.483 -0.742,4.706 -2.223,6.667 -1.482,1.96 -3.094,3.169 -4.837,3.627 C 20.415,-0.229 17.146,0 12.354,0 Z m 0,-37.977 v -35.362 h -21.047 v 89.223 h 39.218 c 7.233,0 13.04,-0.839 17.42,-2.515 4.379,-1.678 8.007,-4.758 10.883,-9.244 2.876,-4.484 4.314,-9.471 4.314,-14.957 0,-10.713 -5.164,-18.4 -15.492,-23.059 L 51.769,-73.339 H 28.674 l -13.702,35.362 z" /></g><path
           id="path84"
           style="fill:#383332;fill-opacity:1;fill-rule:nonzero;stroke:none"
           d="M 391.478,243.449 H 371.28 v 20.198 h 20.198 z" /><g
           transform="translate(447.0889,243.4492)"
           id="g86"><path
             id="path88"
             style="fill:#383332;fill-opacity:1;fill-rule:nonzero;stroke:none"
             d="M 0,0 -22.014,72.751 V 0 H -39.532 V 89.223 H -6.986 L 8.674,35.82 25.148,89.223 H 57.795 V 0 H 36.748 V 72.751 L 14.305,0 Z" /></g><path
           id="path90"
           style="fill:#383332;fill-opacity:1;fill-rule:nonzero;stroke:none"
           d="m 543.516,243.449 h -20.852 v 89.223 h 20.852 z" /><path
           id="path92"
           style="fill:#383332;fill-opacity:1;fill-rule:nonzero;stroke:none"
           d="m 579.792,243.449 h -20.197 v 20.198 h 20.197 z" /><g
           transform="translate(657.5107,313.0635)"
           id="g94"><path
             id="path96"
             style="fill:#383332;fill-opacity:1;fill-rule:nonzero;stroke:none"
             d="m 0,0 -17.779,-5.949 c -2.392,7.059 -7.457,10.59 -15.195,10.59 -8.26,0 -12.389,-2.68 -12.389,-8.041 0,-2.135 0.772,-3.944 2.317,-5.424 1.544,-1.483 5.036,-2.77 10.476,-3.862 9.093,-1.835 15.752,-3.689 19.974,-5.562 4.221,-1.873 7.779,-4.891 10.672,-9.051 2.895,-4.162 4.342,-8.811 4.342,-13.953 0,-8.061 -3.103,-15.03 -9.306,-20.913 -6.205,-5.881 -15.401,-8.822 -27.591,-8.822 -9.144,0 -16.926,2.082 -23.348,6.244 -6.422,4.16 -10.655,10.336 -12.701,18.53 l 19.347,4.379 c 2.175,-8.324 8.22,-12.484 18.135,-12.484 4.784,0 8.35,0.925 10.698,2.777 2.348,1.852 3.523,4.063 3.523,6.635 0,2.615 -1.067,4.64 -3.199,6.079 -2.132,1.438 -6.245,2.789 -12.335,4.055 -11.359,2.354 -19.453,5.57 -24.284,9.643 -4.83,4.074 -7.245,10.033 -7.245,17.876 0,7.929 2.884,14.618 8.652,20.065 5.768,5.446 13.593,8.169 23.476,8.169 C -16.261,20.981 -5.007,13.987 0,0" /></g><path
           id="path98"
           style="fill:#383332;fill-opacity:1;fill-rule:nonzero;stroke:none"
           d="M 691.957,243.449 H 671.76 v 20.198 h 20.197 z" /><g
           transform="translate(728.0137,278.2891)"
           id="g100"><path
             id="path102"
             style="fill:#383332;fill-opacity:1;fill-rule:nonzero;stroke:none"
             d="M 0,0 H 18.905 L 9.535,31.31 Z M 23.864,54.383 51.793,-34.84 H 29.33 l -5.496,18.368 H -5.014 l -5.592,-18.368 h -18.326 l 28.598,89.223 z" /></g><path
           id="path104"
           style="fill:#383332;fill-opacity:1;fill-rule:nonzero;stroke:none"
           d="m 810.855,243.449 h -20.197 v 20.198 h 20.197 z" /><g
           transform="translate(318.9585,263.208)"
           id="g106"><path
             id="path108"
             style="fill:#383332;fill-opacity:1;fill-rule:evenodd;stroke:none"
             d="m 0,0 c 8.674,-3.216 16.812,-2.279 23.482,4.271 8.057,7.914 8.236,18.165 7.322,28.583 C 29.313,49.852 17.606,58.3 1.084,54.209 -6.679,53.217 -11.349,48.18 -13.807,41.434 -17.357,31.688 -17.423,21.575 -13.485,11.886 -11.061,5.917 -7,1.113 0,0 M 29.542,-15.775 C 17.53,-20.413 5.085,-21.019 -7.12,-17.698 c -24.166,6.574 -32.151,27.295 -30.667,48.974 0.708,10.335 3.481,20.121 10.834,28.055 13.888,14.981 31.197,15.878 49.636,12.171 1.929,-0.387 3.794,-1.093 5.69,-1.652 0.491,-1.105 1.365,-1.308 2.44,-1.034 0.756,-0.41 1.513,-0.821 2.27,-1.232 4.198,-4.322 9.299,-7.712 12.574,-12.999 14.498,-23.404 7.797,-52.876 -16.115,-70.36" /></g><g
           transform="translate(349.5,248.4326)"
           id="g110"><path
             id="path112"
             style="fill:#b6b8bc;fill-opacity:1;fill-rule:evenodd;stroke:none"
             d="M 0,0 C 23.912,17.484 30.614,46.956 16.116,70.36 12.84,75.647 7.74,79.037 3.541,83.359 5.345,85.182 6.616,83.5 8.108,82.738 24.492,74.359 30.519,54.672 29.29,38.248 28.194,23.632 22.443,11.578 9.876,3.332 6.88,1.365 3.78,-0.339 0,0" /></g><g
           transform="translate(370.8745,326.8623)"
           id="g114"><path
             id="path116"
             style="fill:#383332;fill-opacity:1;fill-rule:evenodd;stroke:none"
             d="M 0,0 C 0.404,0.341 0.809,0.682 1.214,1.021 1.255,0.151 0.788,-0.116 0,0" /></g></g></g></g></svg>